<?xml version="1.0" encoding="UTF-8" standalone="no"?>
<svg
   xmlns:svg="http://www.w3.org/2000/svg"
   xmlns="http://www.w3.org/2000/svg"
   width="900.0"
   height="620.0"

>
    <g transform="scale(4.093003982386863, -4.093003982386863)   translate(147.8588158223053,-37.88470310099108)" stroke-width="0.4"  fill="none">
       <!-- hidden lines -->
       <g  stroke="rgb(160,160,160)" fill="none" stroke-dasharray="0.4,0.4" >
			<path d="M-50.911688245431414,-72.26547454125094 L-50.911688245431414,-77.3103414097292 " />
			<path d="M-50.20458146424487,-72.02977228085541 L-50.91168824543142,-72.26547454125094 " />
			<path d="M-50.20458146424487,-72.02977228085541 L-50.20458146424487,-71.4177848998413 " />
			<path d="M-29.698484809834994,-64.58241934837135 L-50.20458146424487,-71.41778489984131 " />
			<path d="M-54.51377440536137,-76.10964602308587 L-54.695338396790106,-76.04912469260962 " />
			<path d="M-57.98275605729689,-62.696801265207206 L-76.36753236814712,-68.82506003549062 " />
			<path d="M-72.83199846221437,-70.0035713374682 L-76.36753236814712,-68.82506003549062 " />
			<path d="M-53.98823161560356,-75.81342243221411 L-54.69533839679011,-76.04912469260964 " />
			<path d="M-50.911688245431414,-72.26547454125094 L-51.00905143645092,-72.41564886606243 L-51.10788858206767,-72.56391886150918 L-51.20818814823427,-72.71026722485396 L-51.30993843024245,-72.8546768776092 L-51.41312755408904,-72.99713096752991 L-51.51774347786164,-73.13761287058051 L-51.62377399314389,-73.27610619287464 L-51.7312067264401,-73.41259477258829 L-51.84002914061929,-73.54706268184597 L-51.95022853637818,-73.67949422857932 L-52.061792053723174,-73.8098739583584 L-52.17470667347113,-73.93818665619517 L-52.288959218768625,-74.06441734831905 L-52.40453635662967,-74.18855130392433 L-52.521424599491645,-74.31057403688915 L-52.63961030678927,-74.4304713074661 L-52.759079686546386,-74.54822912394388 L-52.879818796985504,-74.66383374428015 L-53.00181354815472,-74.77727167770516 L-53.125049703572,-74.88852968629604 L-53.249512881886574,-74.9975947865218 L-53.37518855855714,-75.10445425075827 L-53.50206206754686,-75.20909560877354 L-53.630118603034916,-75.31150664918312 L-53.75934322114422,-75.41167542087496 L-53.88972084168536,-75.50959023440424 L-54.02123624991647,-75.60523966335734 L-54.15387409831867,-75.6986125456854 L-54.28761890838712,-75.78969798500682 L-54.42245507243736,-75.87848535187887 L-54.55836685542662,-75.96496428503814 L-54.69533839679005,-76.0491246926096 " />
			<path d="M-84.14570696119915,-52.561604068200026 L-84.1444476781615,-52.82593663475234 L-84.14067003292593,-53.091065928003744 L-84.1343746370915,-53.35694902363858 L-84.12556250988004,-53.62354287530084 L-84.11423507797109,-53.89080432156349 L-84.10039417527084,-54.158690092916196 L-84.08404204261535,-54.42715681877067 L-84.0651813274077,-54.69616103448234 L-84.04381508318934,-54.96565918838727 L-84.01994676914583,-55.23560764885317 L-83.99358024954667,-55.50596271134326 L-83.96471979311974,-55.776680605492146 L-83.93337007236025,-56.04771750219209 L-83.89953616277414,-56.319029520688986 L-83.86322354205647,-56.59057273568669 L-83.82443808920453,-56.862303184458376 L-83.78318608356604,-57.13417687396418 L-83.73947420382251,-57.40614978797362 L-83.69330952690801,-57.6781778941918 L-83.64469952686338,-57.95021715138829 L-83.5936520736262,-58.222223516527244 L-83.54017543175665,-58.49415295189805 L-83.48427825909947,-58.76596143224504 L-83.42596960538226,-59.03760495189505 L-83.36525891075037,-59.309039531881986 L-83.30215600423848,-59.58022122706703 L-83.23667110217934,-59.85110613325325 L-83.16881480654975,-60.121650394293795 L-83.09859810325402,-60.39181020919205 L-83.02603236034548,-60.661541839193056 L-82.95112932618592,-60.930801614864876 L-82.87390112754353,-61.1995459431685 L-82.79436026762964,-61.46773131451566 L-82.7125196240744,-61.73531430981295 L-82.62839244684194,-62.00225160749139 L-82.54199235608515,-62.26849999052019 L-82.45333333994061,-62.534016353403494 L-82.362429752264,-62.79875770915919 L-82.26929631030606,-63.062681196278525 L-82.17394809233,-63.325744085665264 L-82.07640053517025,-63.587903787553586 L-81.97666943173334,-63.849117858403325 L-81.87477092844094,-64.10934400777157 L-81.7707215226158,-64.36854010515944 L-81.66453805981087,-64.62666418683307 L-81.55623773108196,-64.88367446261739 L-81.44583807020456,-65.13952932266206 L-81.33335695083508,-65.39418734417805 L-81.21881258361717,-65.64760729814392 L-81.10222351323338,-65.89974815598086 L-80.98360861540282,-66.15056909619514 L-80.86298709382513,-66.4000295109871 L-80.7403784770715,-66.64808901282557 L-80.61580261542294,-66.89470744098655 L-80.48927967765651,-67.13984486805525 L-80.36083014778006,-67.38346160639028 L-80.23047482171587,-67.6255182145491 L-80.09823480393375,-67.86597550367358 L-79.96413150403428,-68.10479454383459 L-79.82818663328261,-68.34193667033483 L-79.69042220109336,-68.57736348996855 L-79.55086051146739,-68.81103688723744 L-79.40952415938071,-69.04291903052149 L-79.26643602712652,-69.2729723782038 " />
			<path d="M-61.63234692272467,-78.61808635401269 L-61.462124322788846,-78.55959932029329 L-61.29297505799491,-78.49797799377264 L-61.12492460159996,-78.43323165439583 L-60.957998261384596,-78.36537005272342 L-60.792221175841654,-78.29440340846301 L-60.62761831039043,-78.22034240893021 L-60.46421445361702,-78.14319820743908 L-60.30203421354119,-78.06298242162266 L-60.14110201391057,-77.97970713168323 L-59.98144209052245,-77.8933848785731 L-59.82307848757402,-77.80402866210612 L-59.66603505404139,-77.71165193899978 L-59.510335440087985,-77.61626862084881 L-59.35600309350296,-77.51789307203006 L-59.203061256170045,-77.41654010753935 L-59.05153296056736,-77.31222499076031 L-58.90144102629887,-77.20496343116582 L-58.75280805665779,-77.09477158195224 L-58.60565643522263,-76.98166603760673 L-58.46000832248632,-76.86566383140823 L-58.315885652518894,-76.7467824328623 L-58.17331012966433,-76.62503974507031 L-58.03230322527193,-76.5004541020332 L-57.89288617446284,-76.37304426589057 L-57.75507997293208,-76.24282942409508 L-57.61890537378673,-76.10982918652294 L-57.48438288442052,-75.97406358252074 L-57.35153276342554,-75.83555305788903 L-57.22037501754134,-75.69431847180334 L-57.09092939864203,-75.55038109367283 L-56.96321540076167,-75.40376259993722 L-56.83725225715857,-75.25448507080235 L-56.71305893741883,-75.10257098691503 L-56.59065414459958,-74.9480432259775 L-56.47005631241239,-74.79092505930215 L-56.35128360244718,-74.63124014830697 L-56.234353901437196,-74.4690125409522 L-56.11928481856531,-74.30426666811877 L-56.00609368281215,-74.13702733992915 L-55.894797540346396,-73.96731974201101 L-55.78541315195774,-73.79516943170437 L-55.677956990532714,-73.62060233421272 L-55.57244523857398,-73.44364473869886 L-55.46889378576328,-73.26432329432578 L-55.367318226568514,-73.08266500624336 L-55.267733857895266,-72.89869723152165 L-55.17015567678317,-72.7124476750308 L-55.07459837814738,-72.52394438526895 L-54.981076352565566,-72.33321575013817 L-54.8896036841108,-72.14029049266935 L-54.80019414823048,-71.94519766669663 L-54.712861209671836,-71.747966652482 L-54.62761802045418,-71.54862715229072 L-54.54447741788826,-71.3472091859183 L-54.463451922642996,-71.1437430861696 L-54.38455373685995,-70.93825949429083 L-54.30779474231569,-70.7307893553551 L-54.23318649863245,-70.5213639136022 L-54.16074024153729,-70.31001470773333 L-54.090466881170066,-70.09677356616149 L-54.02237700044035,-69.88167260221823 L-53.95648085343373,-69.66474420931755 L-53.89278836386756,-69.44602105607744 L-53.8313091235965,-69.22553608140029 L-53.772052391167975,-69.00332248951229 L-53.71502709042794,-68.77941374496298 L-53.66024180917693,-68.55384356758569 L-53.60770479787678,-68.32664592741945 L-53.55742396840815,-68.09785503959314 L-53.509406892879014,-67.86750535917292 L-53.46366080248431,-67.63563157597338 L-53.420192586417,-67.40226860933335 L-53.37900879083054,-67.16745160285724 L-53.34011561785304,-66.93121591912251 L-53.3035189246533,-66.69359713435416 L-53.269224222558705,-66.45463103306717 L-53.23723667622524,-66.2143536026774 L-53.20756110285972,-65.97280102808206 L-53.18020197149435,-65.73000968621037 L-53.155163402313676,-65.48601614054537 L-53.13244916603411,-65.24085713561757 L-53.11206268333609,-64.99456959147133 L-53.094007024348926,-64.74719059810488 L-53.07828490818844,-64.4987574098847 L-53.0648987025475,-64.24930743993512 L-53.05385042333945,-63.99887825450408 L-53.04514173439447,-63.74750756730573 L-53.03877394720911,-63.49523323384096 L-53.03474802074869,-63.24209324569646 L-53.033064561302915,-62.98812572482331 L-53.03372382239459,-62.733368917796 L-53.036725704741436,-62.47786119005258 L-53.04206975627099,-62.22164102011703 L-53.04975517218877,-61.964746993804496 L-53.059780795099385,-61.7072177984104 L-53.072145115180916,-61.4490922168843 L-53.08684627041224,-61.190409121989326 L-53.10388204685346,-60.93120747044805 L-53.12324987897928,-60.67152629707577 L-53.144946850065445,-60.41140470890202 L-53.16896969262791,-60.15088187928117 L-53.195314788914956,-59.8899970419931 L-53.223978171451975,-59.62878948533468 L-53.254955523639,-59.36729854620315 L-53.28824218040072,-59.105563604172104 L-53.32383312888908,-58.843624075561074 L-53.36172300923815,-58.581519407499584 L-53.401906115371304,-58.31928907198654 L-53.44437639586059,-58.05697255994591 L-53.489127454837956,-57.79460937527954 L-53.53615255295855,-57.53223902891799 L-53.58544460841555,-57.26990103287035 L-53.63699619800673,-57.00763489427386 L-53.69079955825231,-56.745480109444316 L-53.74684658656413,-56.483476157928024 L-53.805128842465905,-56.221662496556355 L-53.86563754886427,-55.96007855350369 L-53.928363593370605,-55.698763722349675 L-53.99329752967333,-55.437757356146676 L-54.06042957896048,-55.1770987614934 L-54.12974963139238,-54.916827192615415 L-54.201247247624096,-54.65698184545365 L-54.274911660377626,-54.39760185176159 L-54.350731776063355,-54.138726273212214 L-54.42869617645076,-53.88039409551543 L-54.508793120387914,-53.62264422254699 L-54.591010545569674,-53.365515470489676 L-54.675336070354234,-53.10904656198775 L-54.76175699562774,-52.85327612031548 L-54.85026030671672,-52.59824266356057 L-54.94083267534806,-52.343984598823525 L-55.033460461656205,-52.09054021643366 L-55.12812971623725,-51.837947684182716 L-55.22482618224966,-51.58624504157695 L-55.32353529756135,-51.33547019410851 L-55.424242196942615,-51.08566090754698 L-55.526931714304865,-50.83685480225207 L-55.63158838498448,-50.589089347508036 L-55.738196448071825,-50.34240185588102 L-55.846739848784736,-50.09682947759987 L-55.95720224088632,-49.852409194961474 L-56.06956698914662,-49.609177816761346 L-56.18381717184789,-49.36717197275036 L-56.29993558333285,-49.12642810811847 L-56.41790473659583,-48.886982478006146 L-56.53770686591629,-48.648871142044555 L-56.65932392953421,-48.412129958925036 L-56.782737612367164,-48.17679458099897 L-56.90792932876846,-47.94290044890864 L-57.034880225326106,-47.710482786250004 L-57.16357118370203,-47.47957659426817 L-57.29398282351128,-47.250216646586296 L-57.42609550524058,-47.02243748396886 L-57.559889333206016,-46.796273409119905 L-57.69534415854923,-46.57175848151722 L-57.83243958227176,-46.348926512283064 L-57.97115495830708,-46.127811059092366 L-58.111469396629786,-45.90844542111905 L-58.25336176640158,-45.6908626340213 L-58.39681069915351,-45.47509546496652 L-58.54179459200394,-45.26117640769672 L-58.688291610911904,-45.04913767763507 L-58.83627969396521,-44.839011207034375 L-58.985736554702896,-44.630828640168204 L-59.136639685471465,-44.42462132856537 L-59.28896636081451,-44.22042032628851 L-59.442693640895016,-44.01825638525746 L-59.59779837495006,-43.81815995061811 L-59.75425720477721,-43.620161156157515 L-59.912046568252194,-43.42428981976582 L-60.071142702877275,-43.23057543894581 L-60.23152164935977,-43.03904718637071 L-60.39315925522026,-42.849733905490865 L-60.55603117842986,-42.66266410619001 L-60.72011289107602,-42.47786596049182 L-60.88537968305636,-42.295367298317316 L-61.051806665799894,-42.11519560329373 L-61.2193687760152,-41.9373780086156 L-61.388040779464816,-41.76194129295864 L-61.55779727476545,-41.5889118764469 L-61.72861269721332,-41.41831581667407 L-61.90046132263412,-41.25017880477924 L-62.07331727125697,-41.08452616157794 L-62.247154511611804,-40.921382833748936 L-62.421946864449666,-40.7607733900773 L-62.59766800668516,-40.60272201775447 L-62.774291475360606,-40.44725251873579 L-62.95179067163129,-40.29438830615592 L-63.130138864771155,-40.14415240080301 L-63.309309196198335,-39.9965674276518 L-63.489274683519945,-39.85165561245637 L-63.67000822459557,-39.70943877840307 L-63.85148260161871,-39.569938342824 L-64.0336704852157,-39.433175313971624 L-64.21654443856141,-39.299170287855034 L-64.40007692151113,-39.16794344513826 L-64.58424029474801,-39.03951454810113 L-64.76900682394546,-38.913902937663124 L-64.9543486839438,-38.791127530470746 L-65.14023796294066,-38.67120681604872 L-65.32664666669436,-38.554158854015526 L-65.51354672273979,-38.44000127136372 L-65.70090998461598,-38.32875125980534 L-65.88870823610486,-38.22042557318291 L-66.07691319548056,-38.115040524946394 L-66.26549651976845,-38.01261198569641 L-66.45442980901355,-37.91315538079422 L-66.64368461055747,-37.816685688038675 L-66.83323242332321,-37.723217435410675 L-67.0230447021074,-37.63276469888525 L-67.21309286187902,-37.54534110031182 L-67.40334828208428,-37.46095980536276 L-67.5937823109567,-37.37963352155071 L-67.78436626983199,-37.301374496314864 L-67.975071457467,-37.22619451517656 L-68.16586915436191,-37.154104899964445 L-68.3567306270854,-37.085116507109376 L-68.5476271326017,-37.01923972600958 L-68.73852992259927,-36.95648447746596 L-68.92941024782012,-36.89686021218814 L-69.12023936238938,-36.840375909371126 L-69.31098852814435,-36.78704007534317 L-69.50162901896228,-36.73686074228469 L-69.69213212508646,-36.68984546701867 L-69.88246915744986,-36.64600132987263 L-70.07261145199553,-36.60533493361237 L-70.26253037399327,-36.56785240244755 L-70.45219732235205,-36.53355938110951 L-70.64158373392706,-36.50246103400113 L-70.83066108782135,-36.47456204441909 L-71.01940090968091,-36.4498666138486 L-71.20777477598281,-36.42837846133066 L-71.39575431831565,-36.41010082290201 L-71.58331122765185,-36.395036451107764 L-71.77041725861069,-36.3831876145869 L-71.95704423371218,-36.37455609773062 L-72.14316404762033,-36.3691432004136 L-72.32874867137576,-36.366949737798286 L-72.51377015661679,-36.36797604021207 L-72.69820063978827,-36.37222195309758 L-72.88201234633783,-36.37968683703596 L-73.0651775948986,-36.39036956784314 L-73.24766880145786,-36.40426853673915 L-73.42945848351117,-36.42138165059042 L-73.61051926420107,-36.44170633222493 L-73.79082387644,-36.4652395208204 L-73.97034516701657,-36.491977672365174 L-74.14905610068475,-36.521916760192 L-74.32692976423526,-36.55505227558435 L-74.50393937054866,-36.59137922845551 L-74.68005826262933,-36.63089214809999 L-74.85525991761992,-36.67358508401743 L-75.02951795079565,-36.719451606808725 L-75.2028061195377,-36.76848480914425 L-75.37509832728524,-36.820677306804086 L-75.54636862746548,-36.87602123979005 " />
			<path d="M-75.54636862746554,-36.87602123979007 L-75.78601708908037,-36.95937392529912 L-76.02351191575714,-37.04894742406323 L-76.25878203602588,-37.14471493078178 L-76.49175704417073,-37.246647786567436 L-76.72236722129912,-37.35471548752249 L-76.95054355620566,-37.46888569386729 L-77.17621776602385,-37.58912423961808 L-77.3993223166602,-37.7153951428113 L-77.61979044300412,-37.84766061627145 L-77.83755616890767,-37.98588107891895 L-78.05255432692921,-38.13001516761511 L-78.26472057783518,-38.28001974954014 L-78.47399142985378,-38.435849935100904 L-78.68030425767535,-38.59745909136436 L-78.8835973211931,-38.76479885601264 L-79.08380978397932,-38.93781915181575 L-79.2808817314909,-39.11646820161741 L-79.47475418899899,-39.30069254382961 L-79.66536913923754,-39.49043704843125 L-79.85266953976527,-39.68564493346605 L-80.0365993400358,-39.88625778203487 L-80.21710349817116,-40.0922155597772 L-80.39412799743319,-40.303456632836756 L-80.56761986238848,-40.51991778630568 L-80.73752717476138,-40.74153424314197 L-80.90379908897093,-40.968239683554245 L-81.06638584734645,-41.199966264848285 L-81.225238795018,-41.43664464172933 L-81.3803103944764,-41.678203987053934 L-81.5315542397991,-41.924572013025355 L-81.67892507053749,-42.17567499282601 L-81.82237878526111,-42.43143778268063 L-81.9618724547554,-42.69178384434332 L-82.09736433486835,-42.956635268002046 L-82.2288138790027,-43.22591279559354 L-82.35618175024969,-43.49953584452159 L-82.47942983316081,-43.77742253177182 L-82.59852124515403,-44.05948969841559 L-82.71342034755115,-44.34565293449564 L-82.8240927562427,-44.63582660428625 L-82.93050535197774,-44.92992387192008 L-83.03262629027482,-45.227856727374295 L-83.13042501095161,-45.529536012807895 L-83.22387224727025,-45.83487144924269 L-83.31294003469549,-46.14377166357973 L-83.39760171926326,-46.4561442159431 L-83.47783196555696,-46.77189562734301 L-83.55360676428921,-47.09093140764985 L-83.62490343948681,-47.413156083870824 L-83.69170065527655,-47.73847322872066 L-83.75397842227007,-48.06678548947796 L-83.81171810354586,-48.3979946171185 L-83.8649024202264,-48.73200149571668 L-83.91351545664892,-49.068706172106474 L-83.95754266512833,-49.40800788579287 L-83.99697087031055,-49.749805099104975 L-84.03178827311541,-50.09399552758156 L-84.06198445426755,-50.440476170580276 L-84.08755037741442,-50.78914334210107 L-84.10847839183046,-51.139892701814674 L-84.12476223470665,-51.49261928628702 L-84.13639703302461,-51.84721754038996 L-84.14337930501495,-52.203581348889266 L-84.14570696119915,-52.56160406819984 " />
			<path d="M-75.66042558696057,-39.693099146619076 L-75.82929751645771,-39.96382976511213 L-75.99344383078807,-40.240385549754194 L-76.15280438381663,-40.52266516557697 L-76.30732078299663,-40.81056518029837 L-76.45693641076559,-41.103980102222025 L-76.60159644529101,-41.40280241889126 L-76.7412478805581,-41.70692263648357 L-76.8758395457921,-42.016229319931185 L-77.00532212420815,-42.33060913375276 L-77.12964817108185,-42.64994688358159 L-77.24877213113388,-42.974125558374865 L-77.36265035522223,-43.303026373288574 L-77.47124111633603,-43.63652881320241 L-77.5745046248851,-43.97451067687867 L-77.67240304327953,-44.31684812173894 L-77.76490049979405,-44.66341570924223 L-77.8519631017121,-45.0140864508479 L-77.9335589477447,-45.368731854546525 L-78.00965813971963,-45.727221971941646 L-78.08023279353672,-46.08942544586519 L-78.14525704938501,-46.455209558509054 L-78.20470708121829,-46.82444028005534 L-78.25856110548536,-47.196982317787175 L-78.30679938911194,-47.57269916566241 L-78.34940425673122,-47.95145315433192 L-78.38636009716035,-48.33310550158407 L-78.4176533691208,-48.71751636319695 L-78.4432726062,-49.104544884179816 L-78.46320842105288,-49.49404925038492 L-78.4774535088416,-49.885886740470674 L-78.48600264991212,-50.27991377819734 L-78.48885271170677,-50.675985985035716 " />
			<path d="M-75.66042558696057,-39.69309914661909 L-76.36753236814712,-39.9288014070146 " />
			<path d="M-76.36753236814712,-39.9288014070146 L-76.27016917712763,-39.778627082203116 L-76.17133203151086,-39.63035708675635 L-76.07103246534427,-39.48400872341156 L-75.9692821833361,-39.339599070656355 L-75.8660930594895,-39.19714498073562 L-75.7614771357169,-39.056663077685016 L-75.65544662043466,-38.918169755390906 L-75.54801388713844,-38.78168117567724 L-75.43919147295925,-38.64721326641957 L-75.32899207720037,-38.514781719686226 L-75.21742855985536,-38.38440198990715 L-75.10451394010741,-38.25608929207037 L-74.99026139480992,-38.12985859994649 L-74.87468425694887,-38.005724644341214 L-74.75779601408689,-37.88370191137639 L-74.63961030678928,-37.763804640799435 L-74.52014092703214,-37.646046824321644 L-74.39940181659304,-37.53044220398538 L-74.27740706542383,-37.41700427056039 L-74.15417091000653,-37.30574626196949 L-74.02970773169196,-37.19668116174374 L-73.9040320550214,-37.08982169750727 L-73.77715854603167,-36.985180339492 L-73.64910201054363,-36.882769299082426 L-73.51987739243432,-36.782600527390585 L-73.38949977189317,-36.6846857138613 L-73.25798436366208,-36.58903628490819 L-73.12534651525988,-36.495663402580135 L-72.99160170519141,-36.40457796325872 L-72.85676554114119,-36.31579059638668 L-72.72085375815193,-36.229311663227406 L-72.58388221678854,-36.145151255655975 " />
			<path d="M-71.87677543560187,-35.9094489952604 L-72.58388221678842,-36.14515125565591 " />
			<path d="M-53.98823161560356,-41.87229693525984 L-54.20351450063964,-41.60240625377888 L-54.42126559299433,-41.33654745282484 L-54.641423321409135,-41.07479570658299 L-54.86392543412556,-40.817225027928586 L-55.08870901648747,-40.56390824749897 L-55.31571050873079,-40.31491699310002 L-55.54486572395564,-40.07032166945268 L-55.776109866275846,-39.83019143828531 L-56.009377549140595,-39.59459419877757 L-56.24460281382311,-39.363596568361245 L-56.48171914807116,-39.13726386388349 L-56.72065950491402,-38.915660083137844 L-56.96135632162069,-38.69884788676829 L-57.2037415388039,-38.48688858055128 L-57.44774661966456,-38.27984209806095 L-57.69330256937123,-38.07776698372231 L-57.94033995456911,-37.88072037625723 L-58.188788923012936,-37.68875799252791 L-58.438579223318456,-37.50193411178238 L-58.68964022482666,-37.32030156030655 L-58.94190093757529,-37.143911696486995 L-59.195290032371986,-36.972814396288896 L-59.44973586096326,-36.807058039153176 L-59.70516647629379,-36.64668949431662 L-59.96150965285013,-36.49175410755925 L-60.21869290708321,-36.34229568838232 L-60.47664351790372,-36.19835649762071 L-60.735288547244764,-36.05997723549332 L-60.9945548606858,-35.92719703009466 L-61.25436914813209,-35.80005342633101 L-61.51465794454388,-35.67858237530419 L-61.77534765070935,-35.56281822414607 L-62.03636455405551,-35.452793706306565 L-62.29763484949114,-35.34853993229797 L-62.559084660275936,-35.25008638089807 L-62.82064005890987,-35.15746089081483 L-63.08222708803692,-35.070689652814636 L-63.343771781357205,-34.98979720231668 L-63.60520018454173,-34.91480641245526 L-63.86643837614368,-34.84573848761221 L-64.1274124885004,-34.782612957421165 L-64.38804872862028,-34.72544767124535 L-64.64827339904835,-34.67425879313046 L-64.90801291870507,-34.6290607972342 L-65.16719384369199,-34.589866463733514 L-65.4257428880588,-34.55668687521087 L-65.68358694452567,-34.52953141352057 L-65.94065310515496,-34.50840775713593 L-66.19686868196676,-34.4933218789781 L-66.45216122749206,-34.48427804472721 L-66.706458555258,-34.48127881161615 L-66.95968876019933,-34.48432502770751 L-67.21178023899023,-34.49341583165382 L-67.46266171029092,-34.508548652941 L-67.71226223490304,-34.52971921261535 L-67.96051123582855,-34.556921524493305 L-68.20733851822595,-34.59014789685422 L-68.45267428925862,-34.62938893461521 L-68.69644917782944,-34.67463354198769 L-68.93859425419608,-34.72586892561489 L-69.17904104946165,-34.783080598189215 L-69.41772157493487,-34.84625238254875 L-69.65456834135463,-34.915366416251445 L-69.8895143779731,-34.99040315662592 " />
			<path d="M-69.88951437797316,-34.990403156625945 L-70.14728142983591,-35.08034258187728 L-70.40254893395627,-35.17748158209986 L-70.6552284533342,-35.28178650364947 L-70.9052324475727,-35.39322121026043 L-71.15247430320592,-35.511747095564935 L-71.39686836370636,-35.637323096468194 L-71.63832995916036,-35.76990570737463 L-71.87677543560183,-35.90944899526036 " />
			<path d="M-53.98823161560356,-41.87229693525983 L-54.69533839679011,-42.107999195655346 " />
			<path d="M-54.695338396790106,-42.10799919565535 L-54.42245507243736,-42.46056075262129 L-54.15387409831866,-42.81948754156054 L-53.88972084168536,-43.184612023930576 L-53.630118603034916,-43.55576376825201 L-53.375188558557134,-43.932769529662025 L-53.12504970357201,-44.315453330781004 L-52.879818796985504,-44.70363654385456 L-52.63961030678927,-45.09713797413277 L-52.40453635662967,-45.49577394444761 L-52.17470667347113,-45.89935838094913 L-51.95022853637818,-46.30770289996029 L-51.73120672644011,-46.72061689591002 L-51.51774347786164,-47.13790763030343 L-51.30993843024245,-47.55938032168756 L-51.10788858206768,-47.984838236570745 L-50.911688245431435,-48.41408278125313 " />
			<path d="M-50.20458146424487,-48.17838052085766 L-50.91168824543142,-48.41408278125317 " />
			<path d="M-50.204581464244875,-72.02977228085541 L-50.03570953474774,-71.75904166236236 L-49.871563220417386,-71.48248587772031 L-49.712202667388816,-71.20020626189753 L-49.557686268208826,-70.91230624717613 L-49.40807064043987,-70.61889132525248 L-49.263410605914444,-70.32006900858325 L-49.12375917064735,-70.01594879099093 L-48.98916750541335,-69.70664210754332 L-48.8596849269973,-69.39226229372174 L-48.7353588801236,-69.07292454389291 L-48.61623492007158,-68.74874586909964 L-48.502356695983224,-68.41984505418593 L-48.39376593486942,-68.08634261427208 L-48.29050242632035,-67.74836075059582 L-48.19260400792592,-67.40602330573556 L-48.1001065514114,-67.05945571823227 L-48.01304394949335,-66.7087849766266 L-47.93144810346075,-66.35413957292798 L-47.85534891148582,-65.99564945553286 L-47.78477425766873,-65.63344598160931 L-47.719750001820444,-65.26766186896543 L-47.660299969987165,-64.89843114741916 L-47.60644594572009,-64.52588910968734 L-47.55820766209351,-64.1501722618121 L-47.51560279447424,-63.77141827314258 L-47.478646954045104,-63.38976592589044 L-47.44735368208465,-63.00535506427757 L-47.421734445005455,-62.6183265432947 L-47.40179863015256,-62.22882217708959 L-47.38755354236384,-61.83698468700382 L-47.37900440129333,-61.44295764927715 L-47.376154339498676,-61.0468854424386 L-47.37900440129333,-60.64891319440362 L-47.38755354236384,-60.2491867292966 L-47.40179863015256,-59.847852514018356 L-47.421734445005455,-59.44505760457799 L-47.44735368208465,-59.04094959220899 L-47.478646954045104,-58.63567654928915 L-47.51560279447424,-58.22938697508425 L-47.55820766209351,-57.82222974133522 L-47.60644594572009,-57.41435403770892 L-47.660299969987165,-57.005909317132385 L-47.719750001820444,-56.59704524103059 L-47.78477425766873,-56.18791162448786 L-47.85534891148582,-55.778658381352926 L-47.93144810346075,-55.369435469307845 L-48.01304394949335,-54.960392834920825 L-48.1001065514114,-54.551680358703116 L-48.19260400792592,-54.143447800190145 L-48.29050242632035,-53.73584474306693 L-48.39376593486942,-53.32902054035795 L-48.502356695983224,-52.92312425970158 L-48.61623492007158,-52.51830462872898 L-48.7353588801236,-52.11470998056768 L-48.8596849269973,-51.71248819948971 L-48.98916750541335,-51.31178666672411 L-49.12375917064735,-50.91275220645383 L-49.263410605914444,-50.51553103201678 L-49.40807064043987,-50.1202686923306 L-49.55768626820882,-49.72711001856098 L-49.712202667388816,-49.33619907105291 L-49.87156322041738,-48.94767908654443 L-50.03570953474774,-48.561692425682125 L-50.20458146424485,-48.1783805208577 " />
			<path d="M-72.58388221678841,-70.08627675261022 L-72.85676554114117,-69.73371519564428 L-73.12534651525986,-69.37478840670504 L-73.38949977189316,-69.009663924335 L-73.64910201054361,-68.63851218001356 L-73.90403205502139,-68.26150641860353 L-74.15417091000653,-67.87882261748456 L-74.39940181659303,-67.49063940441101 L-74.63961030678927,-67.09713797413279 L-74.87468425694887,-66.69850200381794 L-75.1045139401074,-66.29491756731643 L-75.32899207720035,-65.88657304830527 L-75.54801388713844,-65.47365905235553 L-75.7614771357169,-65.05636831796211 L-75.96928218333609,-64.63489562657797 L-76.17133203151086,-64.2094377116948 L-76.36753236814704,-63.780193167012555 " />
			<path d="M-75.66042558696057,-63.544490906616836 L-76.36753236814712,-63.78019316701235 " />
			<path d="M-78.48885271170677,-50.675985985035894 L-78.48600264991212,-51.07395823307089 L-78.47745350884162,-51.47368469817789 L-78.46320842105288,-51.87501891345614 L-78.4432726062,-52.2778138228965 L-78.4176533691208,-52.68192183526549 L-78.38636009716035,-53.087194878185336 L-78.34940425673122,-53.49348445239025 L-78.30679938911194,-53.90064168613927 L-78.25856110548537,-54.30851738976556 L-78.20470708121829,-54.71696211034211 L-78.14525704938501,-55.12582618644391 L-78.08023279353672,-55.534959802986634 L-78.00965813971963,-55.94421304612156 L-77.9335589477447,-56.35343595816665 L-77.8519631017121,-56.762478592553684 L-77.76490049979405,-57.17119106877138 L-77.67240304327953,-57.57942362728434 L-77.5745046248851,-57.98702668440757 L-77.47124111633603,-58.39385088711656 L-77.36265035522223,-58.79974716777293 L-77.24877213113388,-59.204566798745525 L-77.12964817108185,-59.608161446906806 L-77.00532212420816,-60.01038322798477 L-76.8758395457921,-60.411084760750384 L-76.7412478805581,-60.81011922102067 L-76.60159644529102,-61.207340395457706 L-76.45693641076559,-61.60260273514388 L-76.30732078299664,-61.9957614089135 L-76.15280438381666,-62.38667235642156 L-75.99344383078808,-62.77519234093005 L-75.82929751645773,-63.16117900179236 L-75.66042558696067,-63.54449090661665 " />
			<path d="M-50.20458146424486,-71.4177848998413 L-53.445670545097656,-70.33742187289036 " />
			<path d="M-53.445670545097656,-70.33742187289037 L-53.34954017221682,-70.22450794983175 L-53.254655623603945,-70.10972676888072 L-53.161029234636814,-69.99309325205833 L-53.068673177127344,-69.87462256219682 L-52.97759945773918,-69.75433010096842 L-52.8878199164268,-69.63223150688303 L-52.79934622489624,-69.50834265325521 L-52.71218988508777,-69.38267964614053 L-52.626362227680545,-69.25525882224177 L-52.54187441061963,-69.12609674678501 L-52.45873741766534,-68.99521021136614 L-52.376962056965404,-68.86261623176789 L-52.29655895964977,-68.72833204574765 L-52.2175385784486,-68.59237511079658 L-52.13991118633328,-68.45476310186996 L-52.063686875180984,-68.31551390908946 L-51.98887555446262,-68.17464563541732 L-51.9154869499546,-68.03217659430287 L-51.77301586664033,-67.74251050166801 L-51.63634771011476,-67.44666625737668 L-51.50555354773609,-67.14479770025581 L-51.38070139238912,-66.83706180177131 L-51.26185616711862,-66.52361858440307 L-51.14907967136938,-66.20463103843326 L-51.04243054885053,-65.88026503719162 L-50.94196425704085,-65.5506892508013 L-50.84773303835092,-65.21607505847057 L-50.75978589295708,-64.87659645937572 L-50.678168553321406,-64.53242998218164 L-50.60292346041081,-64.1837545932469 L-50.534089741627795,-63.8307516035615 L-50.47170319046423,-63.47360457446515 L-50.415796247888736,-63.11249922219555 L-50.36639798547741,-62.74762332131604 L-50.32353409029664,-62.37916660707293 L-50.28722685154582,-62.00732067673333 L-50.257495148966996,-61.632278889954605 L-50.23435444302741,-61.25423626823758 L-50.217816766880055,-60.87338939351537 L-50.20789072010647,-60.48993630593099 L-50.20458146424493,-60.10407640085651 L-50.20789072010647,-59.716010325207684 L-50.217816766880055,-59.32593987310758 L-50.23435444302741,-58.93406788095381 L-50.257495148966996,-58.54059812194372 L-50.28722685154582,-58.14573520011245 L-50.32353409029664,-57.74968444393896 L-50.366397985477406,-57.35265179957534 L-50.415796247888736,-56.95484372375495 L-50.47170319046423,-56.55646707643502 L-50.534089741627795,-56.15772901322963 L-50.60292346041081,-55.75883687768888 L-50.6781685533214,-55.359998093480414 L-50.759785892957076,-54.96142005652921 L-50.84773303835092,-54.563310027171816 L-50.94196425704085,-54.16587502238113 L-51.04243054885053,-53.76932170811768 L-51.14907967136938,-53.37385629186347 L-51.26185616711862,-52.979684415394175 L-51.38070139238912,-52.5870110478456 L-51.505553547736085,-52.19604037912979 L-51.63634771011476,-51.80697571375647 L-51.77301586664033,-51.42001936511477 L-51.9154869499546,-51.03537255027038 L-52.063686875180984,-50.65323528533287 L-52.2175385784486,-50.27380628144734 L-52.3769620569654,-49.897282841464836 L-52.54187441061963,-49.5238607573449 L-52.71218988508777,-49.153734208343934 L-52.8878199164268,-48.78709566004209 L-53.06867317712734,-48.42413576426127 L-53.25465562360394,-48.06504325992631 L-53.44567054509763,-47.710004874920884 " />
			<path d="M-50.20458146424486,-48.79036790187178 L-53.44567054509765,-47.71000487492085 " />
			<path d="M-50.20458146424487,-48.790367901871775 L-50.20458146424487,-48.17838052085766 " />
			<path d="M-53.445670545097656,-70.33742187289036 L-54.15277732628421,-70.57312413328589 " />
			<path d="M-54.1527773262842,-70.57312413328589 L-73.12644328729446,-64.24856881294913 " />
			<path d="M-72.41933650610792,-64.0128665525536 L-73.12644328729448,-64.24856881294913 " />
			<path d="M-72.41933650610792,-64.0128665525536 L-75.66042558696057,-62.93250352560272 " />
			<path d="M-57.98275605729689,-57.03994701571483 L-75.66042558696057,-62.932503525602726 " />
			<path d="M-76.36753236814712,-63.78019316701236 L-76.36753236814712,-68.82506003549062 " />
			<path d="M-75.66042558696057,-63.54449090661684 L-75.66042558696057,-62.932503525602726 " />
			<path d="M-81.31727983645303,-53.504413109782064 L-81.31567219245984,-53.774669341355875 L-81.31084966659832,-54.045929064305234 L-81.3028134771199,-54.31812375384469 L-81.2915656541017,-54.59118464900045 L-81.27710903893373,-54.86504276998058 L-81.259447283601,-55.13962893560042 L-81.23858484976111,-55.41487378075895 L-81.21452700761704,-55.690707773961584 L-81.18727983458584,-55.96706123488498 L-81.15685021376343,-56.243864351979504 L-81.12324583218575,-56.52104720010476 L-81.08647517888686,-56.798539758193904 L-81.04654754275458,-57.0762719269421 L-81.00347301018385,-57.35417354651483 L-80.9572624625288,-57.63217441427144 L-80.90792757335387,-57.9102043024995 L-80.85548080548496,-58.18819297615554 L-80.79993540786104,-58.46607021060755 L-80.74130541218726,-58.74376580937497 L-80.67960562939034,-59.02120962186149 L-80.61485164587701,-59.298331561076225 L-80.54705981959671,-59.57506162133896 L-80.47624727590923,-59.85132989596468 L-80.40243190325853,-60.12706659492325 L-80.32563234865394,-60.4022020624695 L-80.24586801295948,-60.67666679473946 L-80.1631590459929,-60.95039145730825 L-80.0775263414356,-61.22330690270505 L-79.98899153155438,-61.495344187880974 L-79.89757698173686,-61.76643459162524 L-79.80330578484163,-62.0365096319253 L-79.70620175536448,-62.305501083266535 L-79.60628942342258,-62.57334099386722 L-79.50359402855771,-62.839961702844235 L-79.39814151336033,-63.105295857305386 L-79.28995851691604,-63.369276429363865 L-79.17907236807608,-63.631836733070635 L-79.06551107855364,-63.89291044126041 L-78.94930333584759,-64.15243160230705 L-78.83047849599559,-64.41033465678402 L-78.70906657615818,-64.6665544540258 L-78.585098247036,-64.92102626858612 L-78.45860482512182,-65.17368581658857 L-78.3296182647895,-65.42446927196596 L-78.19817115022174,-65.67331328258368 L-78.06429668717877,-65.92015498624365 L-77.92802869461002,-66.16493202656433 L-77.78940159611093,-66.40758256873299 L-77.64845041122688,-66.64804531512624 L-77.50521074660669,-66.88625952079485 L-77.35971878700786,-67.12216500880889 L-77.21201128615559,-67.35570218545955 L-77.06212555745819,-67.58681205531337 L-76.91009946458111,-67.81543623611564 L-76.75597141188193,-68.04151697353865 L-76.59978033470877,-68.2649971557714 L-76.44156568956454,-68.48582032794705 L-76.28136744413959,-68.70393070640435 L-76.11922606721521,-68.91927319277957 L-75.95518251844048,-69.13179338792521 L-75.78927823798523,-69.34143760565219 L-75.62155513607149,-69.5481528862919 L-75.45205558238632,-69.75188701007465 L-75.2808223953785,-69.95258851032133 L-75.10789883144182,-70.15020668644473 L-74.93332857398785,-70.34469161675734 L-74.75715572241073,-70.53599417108246 L-74.57942478094692,-70.72406602316529 L-74.40018064743272,-70.90885966288096 L-74.21946860196223,-71.09032840823636 L-74.03733429544897,-71.26842641716284 L-73.85382373809357,-71.44310869909671 L-73.66898328776081,-71.61433112634454 L-73.48285963826898,-71.78205044523062 L-73.29549980759407,-71.94622428702354 L-73.10695112599232,-72.10681117863929 L-72.91726122404383,-72.26377055311798 L-72.72647802062016,-72.41706275987185 L-72.53464971077933,-72.56664907470156 L-72.34182475359086,-72.71249170957867 L-72.1480518598942,-72.85455382219149 L-71.9533799799936,-72.99279952525205 L-71.7578582912924,-73.1271938955619 L-71.56153618586995,-73.25770298283425 L-71.36446325800443,-73.38429381827036 L-71.1666892916444,-73.50693442288812 L-70.96826424783261,-73.62559381560037 L-70.76923825208493,-73.74024202104128 L-70.56966158172787,-73.85085007713866 L-70.36958465319763,-73.95739004243026 L-70.16905800930407,-74.05983500312222 L-69.96813230646275,-74.15815907988798 L-69.76685830189822,-74.25233743440586 L-69.56528684082198,-74.34234627563355 L-69.36346884358805,-74.42816286581825 L-69.16145529282963,-74.5097655262405 L-68.95929722058003,-74.58713364269066 L-68.75704569538115,-74.66024767067638 L-68.55475180938268,-74.72908914035989 L-68.35246666543539,-74.79364066122375 L-68.1502413641816,-74.85388592646402 L-67.94812699114638,-74.90980971710964 L-67.74617460383251,-74.96139790586699 L-67.54443521882237,-75.00863746068866 L-67.34295979889042,-75.05151644806561 L-67.14179924012902,-75.09002403604174 L-66.94100435909132,-75.12415049695025 L-66.74062587995414,-75.15388720987099 L-66.54071442170408,-75.17922666280823 L-66.34132048535044,-75.2001624545884 L-66.1424944411677,-75.21668929647706 L-65.94428651597123,-75.22880301351492 L-65.74674678042909,-75.23650054557258 L-65.54992513641335,-75.23977994812347 L-65.35387130439406,-75.23864039273516 L-65.15863481087898,-75.23308216727855 L-64.96426497590235,-75.22310667585526 L-64.77081090056586,-75.20871643844282 L-64.57832145463487,-75.18991509025813 L-64.386845264193,-75.16670738083913 L-64.1964306993585,-75.13909917284505 L-64.00712586206504,-75.10709744057527 L-63.81897857391035,-75.07071026820768 L-63.63203636407575,-75.02994684775624 L-63.44634645731943,-74.98481747674919 L-63.26195576204664,-74.93533355562747 L-63.07891085845992,-74.88150758486498 L-62.897257986792184,-74.82335316181064 " />
			<path d="M-62.897257986792084,-74.8233531618106 L-62.757984950480946,-74.77550013422201 L-62.61959009746773,-74.72508268525056 L-62.482094269508224,-74.67210840757863 L-62.34551817296838,-74.61658527893758 L-62.20988237570597,-74.55852166090634 L-62.07520730397316,-74.49792629765221 L-61.94151323934037,-74.43480831461403 L-61.80882031564196,-74.36917721712787 L-61.677148515944175,-74.3010428889956 L-61.54651766953572,-74.2304155909964 L-61.41694744894155,-74.1573059593416 L-61.2884573669603,-74.08172500407278 L-61.1610667737257,-74.0036841074038 L-61.034794853792505,-73.92319502200664 L-60.90966062324738,-73.84026986924151 L-60.78568292684519,-73.7549211373314 L-60.66288043517097,-73.66716167948135 L-60.54127164182827,-73.57700471194298 L-60.420874860654045,-73.48446381202392 L-60.3017082229607,-73.38955291604333 L-60.18378967480554,-73.29228631723302 L-60.06713697428816,-73.19267866358503 L-59.9517676888762,-73.09074495564558 L-59.83769919275967,-72.98650054425615 L-59.72494866423451,-72.87996112824166 L-59.613533083115584,-72.77114275204627 L-59.5034692281796,-72.6600618033172 L-59.394773674638245,-72.5467350104367 L-59.287462791642085,-72.43117944000295 L-59.18155273981537,-72.31341249425982 L-59.077059468822355,-72.19345190847613 L-58.97399871496527,-72.07131574827488 L-58.87238599881457,-71.94702240691252 L-58.77223662287155,-71.82059060250909 L-58.67356566926385,-71.69203937522926 L-58.57638799747413,-71.56138808441503 L-58.48071824210233,-71.42865640567021 L-58.386570810661695,-71.29386432789741 L-58.29395988140911,-71.15703215028772 L-58.202899401209855,-71.01818047926378 L-58.11340308343732,-70.87733022537653 L-58.02548440590775,-70.73450260015609 L-57.9391566088506,-70.58971911291748 L-57.85443269291458,-70.44300156752132 L-57.771325417209766,-70.29437205909025 L-57.68984729738621,-70.14385297068158 L-57.61001060374903,-69.99146696991633 L-57.531827359410656,-69.83723700556573 L-57.45530933848009,-69.68118630409509 L-57.38046806428982,-69.52333836616606 L-57.307314807660475,-69.36371696309747 L-57.2358605852034,-69.2023461332855 L-57.166116157661676,-69.03925017858354 L-57.09809202828956,-68.87445366064247 L-57.03179844127071,-68.70798139721173 L-56.96724538017549,-68.53985845840181 L-56.90444256645746,-68.37011016290894 L-56.84339945798935,-68.19876207420202 L-56.78412524763877,-68.02583999667294 L-56.72662886188377,-67.85136997175053 L-56.670918959468544,-67.67537827397878 L-56.61700393009949,-67.49789140706004 L-56.564891893181716,-67.31893609986359 L-56.5145906965963,-67.13853930240047 L-56.46610791551842,-66.95672818176483 L-56.41945085127657,-66.77353011804266 L-56.37462653025302,-66.58897270018852 L-56.33164170282562,-66.40308372187069 L-56.29050284235129,-66.21589117728553 L-56.25121614419108,-66.02742325694172 L-56.213787524777246,-65.83770834341482 L-56.17822262072217,-65.64677500707297 L-56.1445267879696,-65.45465200177433 L-56.112705100988016,-65.26136826053683 L-56.08276235200641,-65.0669528911809 L-56.054703050292645,-64.8714351719461 L-56.02853142147436,-64.67484454708173 L-56.004251406902576,-64.47721062241283 L-55.96138056100126,-64.07893207806462 L-55.92611633638324,-63.67683944700404 L-55.8984799748988,-63.271174934796804 L-55.87848812365871,-62.86218289857629 L-55.86615282500662,-62.45010969985193 L-55.86148150926519,-62.03520355611021 L-55.86447699026034,-61.617714391297795 L-55.87513746362634,-61.19789368527663 L-55.89345650789265,-60.77599432234193 L-55.91942308835199,-60.35227043889409 L-55.95302156370726,-59.926977270356424 L-55.99423169549323,-59.50037099743095 L-56.04302866026744,-59.072708591784625 L-56.09938306456296,-58.64424766125929 L-56.163260962593874,-58.215246294698304 L-56.234623876702955,-57.78596290648349 L-56.313428820539166,-57.35665608087597 L-56.39962832495105,-56.92758441625467 L-56.49317046658037,-56.49900636934634 L-56.59399889913875,-56.07118009954087 L-56.70205288734865,-55.64436331338574 L-56.81726734352797,-55.21881310935321 L-56.93957286679646,-54.79478582297386 L-57.06889578488018,-54.372536872429585 L-57.205158198489,-53.9523206046993 L-57.34827802824012,-53.534390142349785 L-57.4981690640997,-53.11899723106413 L-57.654741017312524,-52.706392087999554 L-57.81789957478858,-52.296823251065945 L-57.987546455913744,-51.8905374292159 L-58.16357947175032,-51.48777935383649 L-58.34589258659186,-51.088791631332235 L-58.53437598183513,-50.69381459698806 L-58.72891612213067,-50.30308617020032 L-58.9293958237723,-49.91684171116302 L-59.13569432528416,-49.53531387909568 L-59.34768736016294,-49.1587324920981 L-59.56524723173136,-48.78732438871651 L-59.78824289005788,-48.42131329130456 L-60.016540010896264,-48.06091967126127 L-60.2500010765975,-47.706360616227386 L-60.48848545894527,-47.357849699319836 L-60.73184950386517,-47.015596850483306 L-60.97994661795649,-46.679808230036286 L-61.23262735679467,-46.35068610448777 L-61.48973951495096,-46.02842872469954 L-61.751128217675344,-45.71323020646717 L-62.016636014187235,-45.40528041359205 L-62.28610297251801,-45.104764843514396 L-62.55936677584797,-44.81186451557663 L-62.69737114230674,-44.66832538458457 L-62.83626282027999,-44.52675586198406 L-62.97602089319189,-44.387177267624466 L-63.11662431399072,-44.249610621528696 L-63.25805190831851,-44.11407664072764 L-63.40028237769974,-43.980595736140266 L-63.5432943027489,-43.84918800949984 L-63.68706614639611,-43.719873250326614 L-63.83157625713057,-43.59267093294769 L-63.97680287226113,-43.46760021356417 L-64.12272412119376,-43.34467992736633 L-64.26931802872508,-43.22392858569715 L-64.41656251835185,-43.10536437326453 L-64.56443541559554,-42.98900514540274 L-64.71291445134175,-42.8748684253835 L-64.86197726519383,-42.76297140177701 L-65.01160140884032,-42.65333092586344 L-65.16176434943554,-42.54596350909517 L-65.312443472993,-42.44088532061024 L-65.46361608779091,-42.33811218479733 L-65.61525942778955,-42.237659578912655 L-65.7673506560597,-42.13954263074918 L-65.91986686822182,-42.04377611635839 L-66.07278509589536,-41.95037445782509 L-66.2260823101577,-41.85935172109551 L-66.37973542501224,-41.770721613858974 L-66.53372130086508,-41.68449748348364 L-66.68801674800972,-41.600692315006384 L-66.84259853011935,-41.519318729177314 L-66.99744336774619,-41.44038898055915 L-67.15252794182724,-41.36391495568169 L-67.30782889719613,-41.289908171251795 L-67.46332284610018,-41.218379772419 L-67.61898637172267,-41.14934053109704 L-67.77479603170919,-41.08280084434172 L-67.93072836169807,-41.018770732785114 L-68.08675987885398,-40.95725983912651 L-68.24286708540437,-40.898277426680224 L-68.39902647217814,-40.84183237798064 L-68.55521452214602,-40.78793319344443 L-68.7114077139622,-40.73658799009057 L-68.86758252550653,-40.687804500317796 L-69.02371543742684,-40.641590070740236 L-69.17978293668091,-40.597951661081 L-69.33576152007738,-40.55689584312407 L-69.49162769781536,-40.5184287997246 L-69.64735799702179,-40.482556323877844 L-69.80292896528641,-40.449283817846705 L-69.95831717419367,-40.418616292348226 L-70.11349922285083,-40.390558365798924 L-70.26845174141222,-40.36511426361933 L-70.42315139459846,-40.342287817597665 L-70.57757488521082,-40.32208246531272 L-70.73169895763965,-40.30450124961622 L-70.88550040136653,-40.2895468181746 L-71.03895605445976,-40.277221423070216 L-71.19204280706246,-40.26752692046224 L-71.34473760487278,-40.260464770307095 L-71.49701745261581,-40.25603603613864 L-71.64885941750661,-40.25424138490792 L-71.8002406327038,-40.25508108688283 L-71.9511383007532,-40.25855501560734 L-72.10152969702104,-40.26466264792056 L-72.2513921731162,-40.27340306403552 L-72.40070316030105,-40.28477494767772 L-72.54944017289012,-40.298776586283296 L-72.69758081163641,-40.31540587125699 L-72.84510276710463,-40.33466029828964 L-72.9919838230309,-40.35653696773537 L-73.1382018596685,-40.381032585048224 L-73.28373485711893,-40.40814346127833 L-73.42856089864807,-40.437865513627465 L-73.5726581739868,-40.47019426606386 L-73.71600498261547,-40.50512484999631 L-73.85857973703197,-40.54265200500737 L-74.00036096600275,-40.58277007964553 L-74.14132731779618,-40.625473032276304 L-74.28145756339819,-40.67075443199209 " />
			<path d="M-74.28145756339825,-40.67075443199211 L-74.47753357744674,-40.73895208377223 L-74.67184752654592,-40.81223949185197 L-74.86434126131125,-40.89059472462169 L-75.05495717706611,-40.97399433390086 L-75.24363823108027,-41.062413361954995 L-75.43032795964017,-41.15582534896438 L-75.61497049494595,-41.25420234094229 L-75.79751058183024,-41.35751489810039 L-75.97789359429345,-41.46573210365868 L-76.15606555185089,-41.57882157309756 L-76.33197313568671,-41.69674946384896 L-76.50556370460977,-41.81948048542398 L-76.6767853108068,-41.9469779099737 L-76.84558671538808,-42.079203583280155 L-77.0119174037208,-42.21611793617421 L-77.17572760054588,-42.35767999637675 L-77.33696828487354,-42.50384740075993 L-77.49559120465288,-42.654576408024454 L-77.6515488912117,-42.80982191178943 L-77.80479467346166,-42.969537454090634 L-77.95528269186482,-43.1336752392833 L-78.10296791215738,-43.302186148345214 L-78.24780613882632,-43.47501975357576 L-78.38975402833519,-43.6521243336867 L-78.52876910209486,-43.833446889280026 L-78.66480975917538,-44.01893315870825 L-78.79783528875537,-44.20852763431247 L-78.92780588230481,-44.40217357903332 L-79.05468264549803,-44.599813043389815 L-79.17842760985299,-44.80138688282097 L-79.29900374409348,-45.006834775385144 L-79.41637496523099,-45.21609523981165 L-79.53050614936268,-45.429105653899306 L-79.64136314218236,-45.64580227325645 L-79.74891276920138,-45.86612025037676 L-79.85312284567618,-46.08999365404516 L-79.95396218623982,-46.31735548906808 L-80.0514006142343,-46.548137716322074 L-80.14540897074102,-46.782271273114844 L-80.23595912330684,-47.01968609385261 L-80.32302397436278,-47.26031113100757 L-80.40657746933312,-47.504074376379194 L-80.4865946044323,-47.75090288264305 L-80.56305143414755,-48.00072278518061 L-80.63592507840457,-48.25345932418364 L-80.70519372941456,-48.509036867026396 L-80.77083665820031,-48.767378930899056 L-80.83283422079944,-49.02840820569556 L-80.89116786414293,-49.29204657714909 L-80.94582013160725,-49.55821515020804 L-80.99677466823832,-49.82683427264583 L-81.04401622564578,-50.09782355889718 L-81.08753066656622,-50.37110191411388 L-81.12730496909374,-50.6465875584328 L-81.16332723057688,-50.92419805144894 L-81.19558667118052,-51.20385031688612 L-81.22407363711177,-51.48546066745787 L-81.24877960350898,-51.76894482991137 L-81.26969717699278,-52.054217970246555 L-81.28682009787863,-52.34119471910314 L-81.30014324205005,-52.62978919730779 L-81.30966262249203,-52.91991504157384 L-81.31537539048412,-53.211485430345995 L-81.31727983645303,-53.504413109781915 " />
			<path d="M-75.66042558696057,-40.30508652763321 L-75.66042558696057,-39.69309914661908 " />
			<path d="M-72.41933650610792,-41.38544955458409 L-75.66042558696057,-40.30508652763321 " />
			<path d="M-72.41933650610792,-41.385449554584085 L-72.51546687898876,-41.49836347764271 L-72.61035142760164,-41.61314465859375 L-72.70397781656877,-41.72977817541613 L-72.79633387407824,-41.84824886527764 L-72.8874075934664,-41.96854132650604 L-72.97718713477879,-42.09063992059143 L-73.06566082630934,-42.21452877421925 L-73.15281716611781,-42.340191781333914 L-73.23864482352504,-42.46761260523269 L-73.32313264058595,-42.59677468068945 L-73.40626963354023,-42.72766121610832 L-73.48804499424017,-42.86025519570657 L-73.56844809155581,-42.9945393817268 L-73.64746847275698,-43.13049631667788 L-73.7250958648723,-43.2681083256045 L-73.80132017602459,-43.407357518385 L-73.87613149674296,-43.54822579205714 L-73.94952010125098,-43.690694833171584 L-74.09199118456525,-43.98036092580645 L-74.22865934109082,-44.27620517009779 L-74.3594535034695,-44.57807372721865 L-74.48430565881645,-44.88580962570314 L-74.60315088408696,-45.19925284307139 L-74.7159273798362,-45.51824038904119 L-74.82257650235505,-45.84260639028284 L-74.92304279416473,-46.17218217667317 L-75.01727401285467,-46.506796369003894 L-75.1052211582485,-46.84627496809873 L-75.18683849788418,-47.19044144529282 L-75.26208359079477,-47.53911683422754 L-75.33091730957779,-47.89211982391296 L-75.39330386074136,-48.2492668530093 L-75.44921080331684,-48.61037220527891 L-75.49860906572817,-48.97524810615842 L-75.54147296090895,-49.34370482040153 L-75.57778019965977,-49.71555075074114 L-75.60751190223858,-50.09059253751985 L-75.63065260817817,-50.46863515923689 L-75.64719028432553,-50.84948203395909 L-75.6571163310991,-51.23293512154347 L-75.66042558696066,-51.61879502661779 " />
			<path d="M-75.66042558696064,-51.61879502661794 L-75.6571163310991,-52.006861102266775 L-75.64719028432552,-52.396931554366866 L-75.63065260817818,-52.78880354652064 L-75.60751190223858,-53.18227330553073 L-75.57778019965977,-53.577136227362004 L-75.54147296090895,-53.97318698353549 L-75.49860906572817,-54.37021962789911 L-75.44921080331684,-54.76802770371951 L-75.39330386074136,-55.16640435103944 L-75.33091730957779,-55.56514241424484 L-75.26208359079477,-55.96403454978559 L-75.18683849788418,-56.36287333399405 L-75.1052211582485,-56.76145137094526 L-75.01727401285467,-57.15956140030266 L-74.92304279416473,-57.55699640509333 L-74.82257650235505,-57.95354971935677 L-74.7159273798362,-58.34901513561099 L-74.60315088408696,-58.74318701208027 L-74.48430565881647,-59.13586037962885 L-74.3594535034695,-59.526831048344654 L-74.22865934109082,-59.91589571371798 L-74.09199118456526,-60.30285206235969 L-73.94952010125098,-60.68749887720407 L-73.8013201760246,-61.06963614214159 L-73.64746847275698,-61.44906514602711 L-73.48804499424018,-61.82558858600962 L-73.32313264058595,-62.19901067012957 L-73.15281716611781,-62.56913721913053 L-72.97718713477877,-62.935775767432375 L-72.79633387407823,-63.29873566321319 L-72.61035142760164,-63.657828167548146 L-72.41933650610801,-64.01286655255348 " />
			<path d="M-57.98275605729689,-34.41253001774531 L-75.66042558696057,-40.30508652763321 " />
			<path d="M-76.36753236814712,-34.883934538536344 L-76.36753236814712,-39.9288014070146 " />
			<path d="M-57.98275605729689,-28.75567576825293 L-76.36753236814712,-34.883934538536344 " />
			<path d="M-72.58388221678842,-36.14515125565591 L-76.36753236814712,-34.883934538536344 " />
			<path d="M-50.911688245431414,-43.36921591277491 L-54.695338396790106,-42.107999195655346 " />
			<path d="M-29.698484809834994,-36.298148100909444 L-50.91168824543142,-43.36921591277492 " />
			<path d="M-53.98823161560356,-41.87229693525984 L-71.87677543560189,-35.90944899526039 " />
			<path d="M-50.911688245431414,-43.36921591277491 L-50.911688245431414,-48.41408278125317 " />
			<path d="M-43.1335136523794,-46.433345297916624 L-50.20458146424487,-48.790367901871775 " />
			<path d="M-73.12644328729448,-64.24856881294912 L-72.95150141419758,-64.56238121682765 L-72.77268968280643,-64.87267561438526 L-72.59008240413414,-65.17932305272356 L-72.4037554665565,-65.48219609455627 L-72.21378630427422,-65.78116887117 L-72.02025386513255,-66.07611713473304 L-71.823238577812,-66.36691830993054 L-71.6228223184036,-66.65345154490471 L-71.41908837638259,-66.93559776147873 L-71.21212141999474,-67.21323970464354 L-71.00200746106985,-67.48626199128688 L-70.78883381927668,-67.75455115814464 L-70.57268908583433,-68.01799570895402 L-70.35366308669543,-68.2764861607896 L-70.131846845216,-68.52991508956238 L-69.90733254432777,-68.77817717466338 L-69.68021348822846,-69.02116924273308 L-69.45058406360634,-69.25879031053842 L-69.2185397004147,-69.49094162693962 L-68.98417683221288,-69.71752671392949 L-68.74759285609014,-69.93845140672794 L-68.50888609218913,-70.15362389291528 L-68.26815574284583,-70.36295475058772 L-68.0255018513628,-70.56635698551965 L-67.78102526043283,-70.76374606731692 L-67.5348275702306,-70.95503996454609 L-67.28701109618942,-71.14015917882533 L-67.0376788264807,-71.31902677786252 L-66.78693437921389,-71.49156842742698 L-66.5348819593746,-71.65771242224146 L-66.28162631551888,-71.81738971578159 L-66.02727269624152,-71.97053394897034 L-65.77192680643664,-72.11708147775585 L-65.51569476336844,-72.25697139956061 L-65.25868305257099,-72.3901455785916 L-65.00099848359447,-72.51654867000043 L-64.74274814561711,-72.63612814288378 L-64.48403936294082,-72.74883430211423 L-64.22497965038905,-72.85462030899276 L-63.96567666862553,-72.953442200714 L-63.70623817941243,-73.04525890863648 L-63.44677200082639,-73.13003227535003 L-63.187385962451316,-73.20772707053325 L-62.92818786056623,-73.2783110055947 L-62.66928541334704,-73.34175474709143 L-62.41078621610077,-73.39803192891947 L-62.152797696550856,-73.44711916327105 L-61.89542707019208,-73.48899605035427 L-61.63878129573362,-73.52364518687082 L-61.38296703064897,-73.5510521732485 L-61.128090586850945,-73.57120561962542 L-60.874257886510335,-73.58409715058343 L-60.62157441803644,-73.58972140862886 L-60.37014519223802,-73.5880760564189 L-60.120074698682636,-73.57916177773299 L-59.871466862272605,-73.56298227718872 L-59.624425000055616,-73.53954427870215 L-59.37905177828801,-73.50885752269355 L-59.13544916976849,-73.47093476203943 L-58.893718411460036,-73.42579175677264 L-58.65395996241753,-73.37344726753281 L-58.4162734620388,-73.31392304776975 L-58.18075768865624,-73.24724383470311 L-57.947510518486354,-73.17343733904202 " />
			<path d="M-57.94751051848625,-73.17343733904198 L-57.8136396388302,-73.1274940328172 L-57.68057918928087,-73.07918169419169 L-57.548347679405225,-73.02850704372347 L-57.41696350345941,-72.97547713058336 L-57.28644493782993,-72.92009933157439 L-57.1568101384913,-72.8623813501057 L-57.02807713848049,-72.80233121512086 L-56.90026384538832,-72.73995727998107 L-56.77338803886845,-72.67526822130313 L-56.64746736816412,-72.60827303775243 L-56.52251934965303,-72.53898104879124 L-56.39856136441066,-72.46740189338229 L-56.27561065579248,-72.39354552864788 L-56.153684327035286,-72.31742222848482 L-56.032799338878036,-72.23904258213528 L-55.912972507202475,-72.15841749271377 L-55.79422050069397,-72.07555817569036 L-55.676559838522756,-71.99047615733065 L-55.56000688804605,-71.90318327309228 L-55.444577862531204,-71.81369166597864 L-55.330288818900385,-71.72201378484964 L-55.217155655496896,-71.62816238269002 L-55.105194109873665,-71.53215051483531 L-54.994419756604,-71.43399153715575 L-54.88484800511514,-71.33369910419842 L-54.77649409754461,-71.23128716728779 L-54.66937310662001,-71.12676997258501 L-54.563499933562284,-71.02016205910616 L-54.45888930601285,-70.9114782566998 L-54.35555577598491,-70.80073368398402 L-54.253513717839155,-70.68794374624338 L-54.15277732628421,-70.57312413328589 " />
			<path d="M-53.445670545097656,-47.71000487492085 L-54.15277732628421,-47.94570713531636 " />
			<path d="M-54.1527773262842,-47.94570713531637 L-54.32771919938111,-47.63189473143784 L-54.50653093077225,-47.32160033388023 L-54.68913820944455,-47.01495289554193 L-54.87546514702218,-46.71207985370921 L-55.06543430930447,-46.41310707709548 L-55.258966748446134,-46.11815881353245 L-55.45598203576667,-45.82735763833496 L-55.656398295175066,-45.54082440336078 L-55.860132237196105,-45.25867818678675 L-56.06709919358394,-44.98103624362196 L-56.27721315250882,-44.708013956978604 L-56.49038679430201,-44.43972479012086 L-56.70653152774437,-44.17628023931147 L-56.92555752688325,-43.91778978747588 L-57.14737376836267,-43.66436085870311 L-57.371888069250915,-43.4160987736021 L-57.59900712535023,-43.1731067055324 L-57.828636549972344,-42.93548563772707 L-58.06068091316398,-42.70333432132587 L-58.2950437813658,-42.476749234336005 L-58.53162775748855,-42.25582454153754 L-58.77033452138956,-42.040652055350215 L-59.01106487073284,-41.83132119767778 L-59.25371876221588,-41.62791896274584 L-59.49819535314585,-41.43052988094857 L-59.74439304334808,-41.239235983719404 L-59.992209517389256,-41.054116769440164 L-60.24154178709798,-40.87524917040297 L-60.4922862343648,-40.7027075208385 L-60.744338654204086,-40.536563526024025 L-60.9975942980598,-40.37688623248391 L-61.25194791733715,-40.22374199929514 L-61.507293807142055,-40.07719447050964 L-61.76352585021023,-39.93730454870487 L-62.020537561007686,-39.8041303696739 L-62.27822212998421,-39.67772727826506 L-62.53647246796156,-39.55814780538171 L-62.79518125063785,-39.44544164615125 L-63.05424096318963,-39.339655639272735 L-63.313543944953146,-39.24083374755149 L-63.572982434166256,-39.149017039629 L-63.83244861275228,-39.06424367291546 L-64.09183465112736,-38.98654887773223 L-64.35103275301245,-38.91596494267078 L-64.60993520023165,-38.852521201174056 L-64.86843439747791,-38.796244019346034 L-65.12642291702781,-38.74715678499444 L-65.3837935433866,-38.70527989791121 L-65.64043931784506,-38.67063076139466 L-65.8962535829297,-38.64322377501699 L-66.15113002672773,-38.62307032864007 L-66.40496272706835,-38.610178797682046 L-66.65764619554224,-38.60455453963662 L-66.90907542134066,-38.606199891846586 L-67.15914591489603,-38.615114170532486 L-67.40775375130607,-38.63129367107676 L-67.65479561352306,-38.65473166956333 L-67.90016883529067,-38.685418425571925 L-68.14377144381018,-38.72334118622605 L-68.38550220211864,-38.768484191492846 L-68.62526065116116,-38.820828680732674 L-68.86294715153987,-38.88035290049573 L-69.09846292492243,-38.94703211356237 L-69.33171009509238,-39.020838609223475 " />
			<path d="M-69.33171009509242,-39.02083860922349 L-69.46558097474846,-39.06678191544829 L-69.5986414242978,-39.115094254073796 L-69.73087293417345,-39.165768904542006 L-69.86225711011926,-39.21879881768212 L-69.99277567574875,-39.27417661669108 L-70.12241047508738,-39.33189459815979 L-70.25114347509819,-39.391944733144626 L-70.37895676819036,-39.454318668284415 L-70.50583257471023,-39.51900772696236 L-70.63175324541456,-39.586002910513045 L-70.75670126392563,-39.65529489947423 L-70.88065924916802,-39.72687405488319 L-71.0036099577862,-39.80073041961761 L-71.1255362865434,-39.87685371978067 L-71.24642127470065,-39.955233366130194 L-71.3662481063762,-40.03585845555171 L-71.4850001128847,-40.11871777257511 L-71.60266077505592,-40.20379979093484 L-71.71921372553263,-40.2910926751732 L-71.83464275104747,-40.38058428228684 L-71.9489317946783,-40.472262163415834 L-72.06206495808178,-40.56611356557546 L-72.17402650370502,-40.66212543343018 L-72.28480085697467,-40.76028441110974 L-72.39437260846354,-40.86057684406707 L-72.50272651603407,-40.96298878097769 L-72.60984750695867,-41.067505975680476 L-72.7157206800164,-41.17411388915933 L-72.82033130756584,-41.28279769156568 L-72.92366483759378,-41.39354226428146 L-73.02570689573953,-41.5063322020221 L-73.12644328729444,-41.621151814979555 " />
			<path d="M-72.41933650610792,-41.38544955458409 L-73.12644328729448,-41.621151814979605 " />
			<path d="M-54.1527773262842,-47.94570713531637 L-73.12644328729446,-41.62115181497961 " />
			<path d="M28.2842712474619,4.714045207910317 L-14.142135623730951,-9.428090415820634 " />
			<path d="M-14.142135623730947,-9.428090415820634 L-14.142135623730947,-28.284271247461902 " />
			<path d="M-1.4142135623730947,-24.041630560342618 L-14.142135623730951,-28.284271247461902 " />
			<path d="M-1.4142135623730947,-24.041630560342615 L-1.414213562373094,-80.61017305526642 " />
			<path d="M-14.142135623730947,-9.428090415820634 L-98.99494936611664,18.856180831641268 " />
			<path d="M-14.142135623730947,-28.284271247461902 L-18.384776310850235,-26.870057685088806 " />
			<path d="M-1.4142135623730947,-24.041630560342615 L-18.384776310850235,-18.384776310850235 " />
			<path d="M-18.384776310850235,-62.22539674441619 L-18.384776310850235,-73.53910524340094 " />
			<path d="M-7.778174593052021,-78.48885271170677 L-9.899494936611664,-77.78174593052023 " />
			<path d="M-9.899494936611664,-77.78174593052023 L-9.899494936611664,-79.19595949289332 " />
			<path d="M-33.23401871576774,-71.4177848998413 L-73.53910524340094,-57.982756057296896 " />
			<path d="M-73.53910524340094,-55.154328932550705 L-73.53910524340094,-57.982756057296896 " />
			<path d="M-72.12489168102785,-55.625733453341745 L-73.53910524340094,-55.15432893255071 " />
			<path d="M-72.12489168102785,-48.08326112068523 L-72.12489168102785,-55.62573345334174 " />
			<path d="M-50.91168824543142,-55.154328932550705 L-72.12489168102785,-48.08326112068523 " />
			<path d="M-50.91168824543142,-55.154328932550705 L-50.91168824543142,-62.69680126520721 " />
			<path d="M-18.384776310850235,-73.53910524340095 L-50.911688245431414,-62.69680126520722 " />
			<path d="M7.0710678118654755,-72.12489168102785 L-9.899494936611664,-77.78174593052023 " />
			<path d="M-18.384776310850235,-73.53910524340094 L-1.4142135623730943,-67.88225099390856 " />
			<path d="M-57.98275605729689,-52.797306328595546 L-73.53910524340094,-57.982756057296896 " />
			<path d="M-57.98275605729689,-49.96887920384936 L-73.53910524340094,-55.15432893255071 " />
			<path d="M-33.94112549695428,-57.03994701571484 L-50.91168824543142,-62.69680126520722 " />
			<path d="M-55.154328932550705,-49.96887920384936 L-72.12489168102785,-55.625733453341745 " />
			<path d="M-33.94112549695428,-49.49747468305833 L-50.91168824543142,-55.15432893255071 " />
			<path d="M-57.98275605729689,-43.36921591277491 L-72.12489168102785,-48.083261120685236 " />
			<path d="M-74.95331880577403,-31.112698372208094 L-74.95331880577403,-70.71067811865476 " />
			<path d="M-57.98275605729689,-25.455844122715714 L-74.95331880577403,-31.112698372208094 " />
			<path d="M-74.95331880577403,-31.112698372208094 L-89.09545442950498,-26.398653164297777 " />
			<path d="M-69.88951437797316,-34.99040315662595 L-75.54636862746554,-36.87602123979008 " />
			<path d="M-69.33171009509242,-39.020838609223496 L-74.28145756339825,-40.67075443199211 " />
			<path d="M-57.94751051848626,-73.173437339042 L-62.89725798679209,-74.8233531618106 " />

       </g>

       <!-- solid lines -->
       <g  stroke="rgb(0,0,0)" fill="none">
			<path d="M-29.698484809834994,-70.23927359786371 L-50.91168824543142,-77.31034140972919 " />
			<path d="M-29.698484809834994,-64.58241934837135 L-29.698484809834994,-70.23927359786373 " />
			<path d="M-50.911688245431414,-77.31034140972919 L-54.51377440536137,-76.10964602308587 " />
			<path d="M-29.698484809834994,-70.23927359786371 L-55.154328932550705,-61.75399222362515 " />
			<path d="M-55.154328932550705,-61.75399222362515 L-57.98275605729689,-62.696801265207206 " />
			<path d="M-72.58388221678842,-70.08627675261019 L-72.83199846221437,-70.0035713374682 " />
			<path d="M-71.87677543560187,-69.85057449221468 L-72.58388221678842,-70.0862767526102 " />
			<path d="M-71.87677543560187,-69.85057449221468 L-53.98823161560355,-75.81342243221411 " />
			<path d="M-79.26643602712642,-69.27297237820396 L-79.04882295533906,-69.61415134109691 L-78.82740860168033,-69.95101744649831 L-78.60227343473579,-70.28344826720966 L-78.3734992753456,-70.61132298794736 L-78.1411692668684,-70.93452244925051 L-77.90536784496456,-71.25292919078707 L-77.66618070690966,-71.56642749404244 L-77.42369478044965,-71.87490342437498 L-77.17799819220865,-72.1782448724233 L-76.92918023566106,-72.47634159485018 L-76.67733133867979,-72.76908525440821 L-76.4225430306719,-73.05636945931283 L-76.16490790931421,-73.33808980190827 L-75.90451960690045,-73.61414389661243 L-75.64147275631255,-73.88443141712682 L-75.37586295662824,-74.14885413289812 L-75.10778673837738,-74.4073159448182 L-74.83734152846006,-74.65972292014922 L-74.56462561473857,-74.90598332666183 L-74.28973811031682,-75.14600766597314 L-74.01277891751951,-75.37970870607332 L-73.73384869158485,-75.6070015130282 L-73.45304880408324,-75.82780348184681 L-73.17048130607596,-76.04203436650258 L-72.88624889102667,-76.24961630909698 L-72.6004548574796,-76.4504738681556 L-72.3132030715178,-76.64453404604565 L-72.024597929015,-76.83172631550562 L-71.73474431769512,-77.01198264527694 L-71.44374757901292,-77.18523752482855 L-71.15171346986976,-77.35142798816537 L-70.85874812417839,-77.51049363671211 L-70.56495801429072,-77.66237666126382 L-70.27044991230262,-77.80702186299554 L-69.97533085124968,-77.94437667352314 L-69.67970808620825,-78.07439117400833 L-69.3836890553158,-78.19701811330054 L-69.08738134072458,-78.31221292510955 L-68.7908926295031,-78.41993374420205 L-68.49433067449957,-78.52014142161681 L-68.19780325518103,-78.6127995388926 L-67.90141813846328,-78.69787442130362 L-67.60528303954514,-78.77533515009806 L-67.30950558276146,-78.84515357373479 L-67.01419326246926,-78.90730431811454 L-66.71945340398109,-78.96176479580151 L-66.42539312455979,-79.00851521423245 L-66.13211929448887,-79.04753858290974 L-65.83973849823268,-79.0788207195763 L-65.54835699570042,-79.10235025536988 L-65.25808068362811,-79.11811863895481 L-64.9690150570926,-79.12612013962978 L-64.68126517117143,-79.12635184941058 L-64.39493560276277,-79.11881368408699 L-64.11013041257897,-79.10350838325327 L-63.82695310732786,-79.08044150931265 L-63.54550660209527,-79.04962144545568 L-63.26589318294263,-79.01105939261357 L-62.98821446973321,-78.96476936538744 L-62.71257137920034,-78.910768186955 L-62.43906408827134,-78.84907548295644 L-62.16779199766017,-78.779713674362 L-61.89885369574229,-78.70270796932346 L-61.6323469227248,-78.61808635401272 " />
			<path d="M-71.87677543560189,-69.85057449221468 L-71.66149255056581,-70.12046517369564 L-71.44374145821111,-70.38632397464967 L-71.22358372979632,-70.64807572089153 L-71.00108161707988,-70.90564639954593 L-70.77629803471797,-71.15896317997554 L-70.54929654247465,-71.40795443437449 L-70.3201413272498,-71.65254975802183 L-70.0888971849296,-71.89267998918919 L-69.85562950206486,-72.12827722869693 L-69.62040423738235,-72.35927485911324 L-69.3832879031343,-72.58560756359101 L-69.14434754629143,-72.80721134433665 L-68.90365072958477,-73.02402354070621 L-68.66126551240156,-73.23598284692322 L-68.4172604315409,-73.44302932941355 L-68.17170448183423,-73.64510444375219 L-67.92466709663634,-73.84215105121727 L-67.67621812819252,-74.03411343494659 L-67.426427827887,-74.22093731569211 L-67.17536682637879,-74.40256986716795 L-66.92310611363015,-74.57895973098752 L-66.66971701883347,-74.7500570311856 L-66.4152711902422,-74.91581338832133 L-66.15984057491167,-75.07618193315788 L-65.90349739835533,-75.23111731991524 L-65.64631414412224,-75.3805757390922 L-65.38836353330174,-75.5245149298538 L-65.12971850396069,-75.66289419198118 L-64.87045219051966,-75.79567439737983 L-64.61063790307337,-75.9228180011435 L-64.35034910666157,-76.04428905217031 L-64.0896594004961,-76.16005320332843 L-63.82864249714995,-76.27007772116794 L-63.567372201714306,-76.37433149517653 L-63.3059223909295,-76.47278504657643 L-63.044366992295565,-76.56541053665967 L-62.78277996316852,-76.65218177465987 L-62.52123526984823,-76.73307422515782 L-62.25980686666371,-76.80806501501924 L-61.99856867506177,-76.87713293986229 L-61.73759456270504,-76.94025847005334 L-61.47695832258517,-76.99742375622915 L-61.21673365215709,-77.04861263434404 L-60.95699413250037,-77.0938106302403 L-60.69781320751345,-77.13300496374099 L-60.43926416314663,-77.16618455226363 L-60.18142010667977,-77.19334001395393 L-59.92435394605047,-77.21446367033857 L-59.66813836923868,-77.22954954849641 L-59.41284582371339,-77.2385933827473 L-59.15854849594745,-77.24159261585835 L-58.90531829100612,-77.23854639976699 L-58.65322681221521,-77.22945559582068 L-58.40234534091453,-77.2143227745335 L-58.1527448163024,-77.19315221485915 L-57.9044958153769,-77.1659499029812 L-57.6576685329795,-77.13272353062028 L-57.41233276194683,-77.0934824928593 L-57.168557873376024,-77.04823788548681 L-56.92641279700938,-76.99700250185961 L-56.685966001743815,-76.93979082928529 L-56.44728547627058,-76.87661904492575 L-56.21043870985082,-76.80750501122306 L-55.97549267323242,-76.7324682708486 " />
			<path d="M-55.97549267323229,-76.73246827084856 L-55.71772562136953,-76.64252884559721 L-55.46245811724918,-76.54538984537464 L-55.20977859787124,-76.44108492382503 L-54.95977460363275,-76.32965021721407 L-54.71253274799953,-76.21112433190957 L-54.46813868749909,-76.08554833100631 L-54.226677092045094,-75.95296572009987 L-53.98823161560357,-75.81342243221411 " />
			<path d="M-55.154328932550705,-56.09713797413277 L-57.98275605729689,-57.03994701571483 " />
			<path d="M-29.698484809834994,-64.58241934837135 L-55.154328932550705,-56.09713797413278 " />
			<path d="M-55.154328932550705,-56.09713797413277 L-55.154328932550705,-61.75399222362515 " />
			<path d="M-55.154328932550705,-33.46972097616325 L-57.98275605729689,-34.41253001774531 " />
			<path d="M-55.154328932550705,-27.81286672667087 L-57.98275605729689,-28.75567576825293 " />
			<path d="M-55.154328932550705,-27.81286672667087 L-55.154328932550705,-33.469720976163245 " />
			<path d="M-29.698484809834994,-36.298148100909444 L-55.154328932550705,-27.812866726670872 " />
			<path d="M-29.698484809834994,-41.95500235040182 L-43.1335136523794,-46.433345297916624 " />
			<path d="M-29.698484809834994,-36.298148100909444 L-29.698484809834994,-41.95500235040183 " />
			<path d="M-29.698484809834994,-41.95500235040182 L-55.154328932550705,-33.46972097616325 " />
			<path d="M28.2842712474619,4.714045207910317 L28.2842712474619,-14.142135623730951 " />
			<path d="M15.556349186104043,-74.95331880577403 L-1.4142135623730963,-80.61017305526642 " />
			<path d="M15.556349186104043,-18.384776310850235 L15.556349186104043,-74.95331880577405 " />
			<path d="M28.2842712474619,-14.142135623730951 L15.556349186104045,-18.384776310850235 " />
			<path d="M28.2842712474619,4.714045207910317 L-56.568542494923804,32.99831645537222 " />
			<path d="M-56.5685424949238,32.99831645537222 L-56.5685424949238,14.142135623730951 " />
			<path d="M28.2842712474619,-14.142135623730951 L-56.568542494923804,14.142135623730953 " />
			<path d="M-56.5685424949238,32.99831645537222 L-98.99494936611664,18.856180831641268 " />
			<path d="M-98.99494936611664,18.856180831641268 L-98.99494936611664,0.0 " />
			<path d="M-18.384776310850235,-26.870057685088806 L-98.99494936611664,1.5135973539842545e-15 " />
			<path d="M15.556349186104043,-18.384776310850235 L-1.4142135623730963,-12.727922061357855 " />
			<path d="M-1.4142135623730947,-12.727922061357855 L-18.384776310850235,-18.384776310850235 " />
			<path d="M-56.5685424949238,14.142135623730951 L-98.99494936611664,-7.567986769921272e-16 " />
			<path d="M-18.384776310850235,-18.384776310850235 L-18.384776310850235,-62.22539674441619 " />
			<path d="M-1.414213562373094,-80.61017305526642 L-7.778174593052021,-78.48885271170677 " />
			<path d="M-9.899494936611664,-79.19595949289332 L-33.23401871576774,-71.4177848998413 " />
			<path d="M15.556349186104043,-74.95331880577403 L7.071067811865474,-72.12489168102785 " />
			<path d="M-1.4142135623730947,-12.727922061357855 L-1.414213562373094,-67.88225099390856 " />
			<path d="M7.0710678118654755,-72.12489168102785 L7.0710678118654755,-73.53910524340094 " />
			<path d="M7.0710678118654755,-73.53910524340094 L-56.568542494923804,-52.32590180780451 " />
			<path d="M-56.5685424949238,-49.49747468305833 L-56.5685424949238,-52.32590180780452 " />
			<path d="M-55.154328932550705,-49.96887920384936 L-56.568542494923804,-49.49747468305833 " />
			<path d="M-55.154328932550705,-42.42640687119285 L-55.154328932550705,-49.96887920384936 " />
			<path d="M-33.94112549695428,-49.49747468305833 L-55.154328932550705,-42.42640687119285 " />
			<path d="M-33.94112549695428,-49.49747468305833 L-33.94112549695428,-57.03994701571484 " />
			<path d="M-1.4142135623730943,-67.88225099390857 L-33.94112549695428,-57.03994701571484 " />
			<path d="M7.0710678118654755,-73.53910524340094 L-9.899494936611664,-79.19595949289332 " />
			<path d="M-56.5685424949238,-52.32590180780451 L-57.98275605729689,-52.797306328595546 " />
			<path d="M-56.5685424949238,-49.49747468305833 L-57.98275605729689,-49.96887920384936 " />
			<path d="M-55.154328932550705,-42.42640687119285 L-57.98275605729689,-43.36921591277491 " />
			<path d="M-57.98275605729689,-25.455844122715714 L-57.98275605729689,-65.05382386916237 " />
			<path d="M-57.98275605729689,-65.05382386916237 L-74.95331880577403,-70.71067811865476 " />
			<path d="M-57.98275605729689,-25.455844122715714 L-72.12489168102783,-20.741798914805397 " />
			<path d="M-72.12489168102785,-20.741798914805397 L-72.12489168102785,-60.339778661252055 " />
			<path d="M-57.98275605729689,-65.05382386916237 L-72.12489168102783,-60.339778661252055 " />
			<path d="M-72.12489168102785,-60.339778661252055 L-89.09545442950498,-65.99663291074444 " />
			<path d="M-89.09545442950498,-26.398653164297777 L-89.09545442950498,-65.99663291074444 " />
			<path d="M-72.12489168102785,-20.741798914805397 L-89.09545442950498,-26.398653164297777 " />
			<path d="M-74.95331880577403,-70.71067811865476 L-89.09545442950498,-65.99663291074444 " />
			<path d="M-55.97549267323228,-76.73246827084854 L-61.632346922724665,-78.61808635401268 " />

       </g>
    </g>
    
</svg>
